<?xml version="1.0" encoding="iso-8859-1"?>
<!-- Generator: Adobe Illustrator 19.0.0, SVG Export Plug-In . SVG Version: 6.00 Build 0)  -->
<svg version="1.1" id="Layer_1" xmlns="http://www.w3.org/2000/svg" xmlns:xlink="http://www.w3.org/1999/xlink" x="0px" y="0px"
	 viewBox="0 0 496 496" style="enable-background:new 0 0 496 496;" xml:space="preserve">
<g>
	<path style="fill:#C3D7DD;" d="M163.2,287.2c-2.4,0-4.8,0-7.2,0s-4-1.6-4-4s1.6-4,4-3.2c4.8,0,9.6,0,14.4,0c1.6,0,4,1.6,4,3.2
		c0,2.4-1.6,4-3.2,4C168.8,287.2,165.6,287.2,163.2,287.2z M140.8,284.8L140.8,284.8c-5.6-0.8-11.2-2.4-16-4
		c-1.6-0.8-3.2-3.2-2.4-4.8c0.8-1.6,2.4-3.2,4.8-2.4c4.8,1.6,9.6,2.4,14.4,3.2c2.4,0,3.2,2.4,3.2,4.8S143.2,284.8,140.8,284.8z
		 M186.4,284.8c-1.6,0-3.2-1.6-4-3.2c-0.8-2.4,0.8-4,3.2-4.8c4.8-0.8,9.6-2.4,14.4-4c1.6-0.8,4,0.8,4.8,2.4s0,4-2.4,4.8
		C197.6,282.4,192.8,284,186.4,284.8C187.2,284.8,187.2,284.8,186.4,284.8z M112,276c-0.8,0-0.8,0-1.6,0c-4.8-2.4-9.6-4.8-13.6-7.2
		c-1.6-0.8-2.4-3.2-0.8-5.6c0.8-1.6,3.2-2.4,5.6-0.8c4,2.4,8.8,4.8,12.8,7.2c1.6,0.8,2.4,3.2,1.6,4.8C115.2,275.2,113.6,276,112,276
		z M215.2,275.2c-1.6,0-2.4-0.8-3.2-2.4s0-4,1.6-4.8c4-2.4,8.8-4.8,12.8-7.2c1.6-0.8,4-0.8,5.6,0.8c0.8,1.6,0.8,4-0.8,5.6
		c-4,3.2-8.8,5.6-13.6,8C216.8,275.2,216,275.2,215.2,275.2z M86.4,259.2c-0.8,0-1.6,0-2.4-0.8c-3.2-2.4-5.6-4.8-8.8-8
		c-0.8-0.8-1.6-1.6-2.4-3.2c-1.6-1.6-1.6-4,0-5.6s4-1.6,5.6,0c0.8,0.8,1.6,1.6,2.4,2.4c2.4,2.4,5.6,4.8,8,7.2c1.6,1.6,1.6,4,0.8,5.6
		C88.8,259.2,87.2,259.2,86.4,259.2z M240.8,258.4c-0.8,0-2.4-0.8-3.2-1.6c-1.6-1.6-0.8-4,0.8-5.6c2.4-1.6,4.8-4,7.2-6.4
		c1.6-1.6,2.4-2.4,4-4s4-1.6,5.6,0s1.6,4,0,5.6s-2.4,3.2-4,4c-2.4,2.4-4.8,4.8-7.2,6.4C242.4,258.4,241.6,258.4,240.8,258.4z
		 M65.6,237.6c-0.8,0-2.4-0.8-3.2-1.6c-3.2-4-5.6-8.8-8.8-13.6c-0.8-1.6,0-4,1.6-4.8c1.6-0.8,4,0,4.8,1.6c2.4,4,4.8,8.8,8,12.8
		c1.6,1.6,0.8,4-0.8,5.6C67.2,236.8,66.4,237.6,65.6,237.6z M261.6,236c-0.8,0-1.6,0-2.4-0.8c-1.6-1.6-2.4-4-0.8-5.6
		c3.2-4,5.6-8,8-12.8c0.8-1.6,3.2-2.4,4.8-1.6c1.6,0.8,2.4,3.2,1.6,4.8c-2.4,4.8-5.6,8.8-8,13.6C264,235.2,262.4,236,261.6,236z
		 M51.2,210.4c-1.6,0-3.2-0.8-3.2-2.4c-1.6-4.8-3.2-9.6-4.8-15.2c-0.8-2.4,0.8-4,2.4-4.8c2.4-0.8,4,0.8,4.8,2.4
		c0.8,4.8,2.4,9.6,4.8,14.4c0.8,1.6,0,4-2.4,4.8C52,210.4,51.2,210.4,51.2,210.4z M276,208.8c-0.8,0-0.8,0-1.6,0
		c-2.4-0.8-3.2-3.2-2.4-4.8c1.6-4.8,3.2-9.6,4-14.4c0.8-2.4,2.4-3.2,4.8-3.2c2.4,0.8,3.2,2.4,3.2,4.8c-0.8,4.8-2.4,10.4-4.8,15.2
		C278.4,208,277.6,208.8,276,208.8z M44,180.8c-1.6,0-3.2-1.6-3.2-3.2C40,172.8,40,168,40,163.2v-0.8c0-2.4,1.6-4,4-4s4,1.6,4,4v0.8
		c0,4.8-0.8,8.8,0,13.6C48,179.2,46.4,180.8,44,180.8L44,180.8z M282.4,179.2L282.4,179.2c-2.4,0-4-2.4-4-4c0.8-4,0.8-8,0.8-12v-2.4
		c0-2.4,1.6-4,4-4s4,1.6,4,4v3.2c0,4,0,8.8-0.8,12.8C286.4,177.6,284.8,179.2,282.4,179.2z M44,150.4C44,150.4,43.2,150.4,44,150.4
		c-2.4,0-4-2.4-4-4c0.8-4.8,1.6-10.4,3.2-15.2c0.8-2.4,2.4-4,4.8-3.2s3.2,2.4,2.4,4.8c-0.8,4.8-2.4,9.6-2.4,14.4
		C47.2,148.8,45.6,150.4,44,150.4z M281.6,148.8c-1.6,0-3.2-1.6-4-3.2c-0.8-4.8-1.6-9.6-3.2-14.4c-0.8-2.4,0.8-4,2.4-4.8
		c2.4-0.8,4,0.8,4.8,2.4c1.6,4.8,2.4,10.4,3.2,15.2C285.6,146.4,284.8,148.8,281.6,148.8C282.4,148.8,282.4,148.8,281.6,148.8z
		 M52,120.8c-0.8,0-0.8,0-1.6,0c-1.6-0.8-3.2-3.2-2.4-4.8c1.6-4.8,4-9.6,7.2-14.4c0.8-1.6,3.2-2.4,5.6-1.6c1.6,0.8,2.4,3.2,1.6,5.6
		c-2.4,4-4.8,8.8-6.4,13.6C54.4,120,53.6,120.8,52,120.8z M273.6,119.2c-1.6,0-3.2-0.8-3.2-2.4c-1.6-4.8-4-8.8-6.4-12.8
		c-0.8-1.6-0.8-4,1.6-5.6c1.6-0.8,4-0.8,5.6,1.6c2.4,4.8,4.8,9.6,7.2,14.4c0.8,1.6,0,4-2.4,4.8C274.4,119.2,274.4,119.2,273.6,119.2
		z M67.2,94.4c-0.8,0-1.6,0-2.4-0.8c-1.6-1.6-2.4-4-0.8-5.6c3.2-4,6.4-8,10.4-12c1.6-1.6,4-1.6,5.6,0s1.6,4,0,5.6
		c-3.2,3.2-6.4,7.2-9.6,11.2C68.8,94.4,68,94.4,67.2,94.4z M258.4,93.6c-0.8,0-2.4-0.8-3.2-1.6c-3.2-4-6.4-7.2-9.6-11.2
		c-1.6-1.6-1.6-3.2-0.8-4.8c-1.6,0.8-3.2,0.8-4.8,0c-4-3.2-7.2-6.4-12-8.8c-1.6-0.8-2.4-3.2-0.8-5.6c0.8-1.6,3.2-2.4,5.6-0.8
		c4,3.2,8.8,6.4,12.8,9.6c1.6,1.6,1.6,3.2,0.8,4.8c1.6-0.8,3.2-0.8,4.8,0.8c4,4,7.2,8,10.4,12c1.6,1.6,0.8,4-0.8,5.6
		C260,92.8,259.2,93.6,258.4,93.6z M88,72.8c-0.8,0-2.4-0.8-3.2-1.6c-1.6-1.6-0.8-4,0.8-5.6c4-3.2,8.8-6.4,12.8-8.8
		c1.6-0.8,4,0,5.6,1.6c0.8,1.6,0.8,4-1.6,5.6c-4,2.4-8,5.6-12,8.8C89.6,72.8,88.8,72.8,88,72.8z M217.6,60c-0.8,0-0.8,0-1.6,0
		c-4-2.4-8.8-4-13.6-5.6c-2.4-1.6-3.2-4-2.4-5.6c0.8-1.6,3.2-3.2,4.8-2.4c4.8,1.6,9.6,4,14.4,6.4c1.6,0.8,2.4,3.2,1.6,4.8
		C220,59.2,219.2,60,217.6,60z M114.4,56.8c-1.6,0-3.2-0.8-3.2-2.4c-0.8-1.6,0-4,1.6-4.8c4.8-2.4,9.6-4,14.4-5.6
		c2.4-0.8,4,0.8,4.8,2.4c0.8,2.4-0.8,4-2.4,4.8c-4.8,1.6-9.6,3.2-13.6,4.8C115.2,56.8,114.4,56.8,114.4,56.8z M188.8,49.6H188
		c-4.8-0.8-9.6-1.6-14.4-2.4c-2.4,0-4-2.4-3.2-4c0-2.4,2.4-3.2,4-3.2c5.6,0.8,10.4,1.6,15.2,2.4c2.4,0.8,3.2,2.4,3.2,4.8
		C192,48,190.4,49.6,188.8,49.6z M143.2,48c-1.6,0-3.2-1.6-4-3.2c0-2.4,0.8-4,3.2-4c4.8-0.8,10.4-1.6,16-1.6c2.4,0,4,1.6,4,4
		s-1.6,4-4,4C153.6,47.2,148.8,47.2,143.2,48C144,48,143.2,48,143.2,48z"/>
	<path style="fill:#C3D7DD;" d="M332.8,456.8c-2.4,0-4.8,0-7.2,0c-2.4,0-4-1.6-4-4s1.6-4,4-3.2c4.8,0,9.6,0,14.4,0
		c1.6,0,4,1.6,4,3.2c0,2.4-1.6,4-3.2,4C339.2,456.8,336,456.8,332.8,456.8z M311.2,455.2C311.2,455.2,310.4,455.2,311.2,455.2
		c-5.6-0.8-11.2-2.4-16-4c-2.4-0.8-3.2-3.2-2.4-4.8c0.8-2.4,3.2-3.2,4.8-2.4c4.8,1.6,9.6,2.4,14.4,3.2c2.4,0,3.2,2.4,3.2,4.8
		C314.4,453.6,312.8,455.2,311.2,455.2z M356.8,454.4c-1.6,0-3.2-1.6-4-3.2c-0.8-2.4,0.8-4,3.2-4.8c4.8-0.8,9.6-2.4,14.4-4
		c2.4-0.8,4,0,4.8,2.4c0.8,1.6,0,4-2.4,4.8C367.2,452,362.4,453.6,356.8,454.4L356.8,454.4z M282.4,445.6c-0.8,0-0.8,0-1.6,0
		c-4.8-2.4-9.6-4.8-13.6-7.2c-1.6-0.8-2.4-3.2-0.8-5.6c0.8-1.6,3.2-2.4,5.6-1.6c4,2.4,8.8,4.8,12.8,7.2c1.6,0.8,2.4,3.2,1.6,4.8
		C284.8,444.8,283.2,445.6,282.4,445.6z M385.6,444.8c-1.6,0-2.4-0.8-3.2-2.4c-0.8-1.6,0-4,1.6-4.8c4.8-2.4,8.8-4.8,12.8-7.2
		c1.6-0.8,4-0.8,5.6,0.8c0.8,1.6,0.8,4-0.8,5.6c-4,3.2-8.8,5.6-13.6,8C386.4,444.8,385.6,444.8,385.6,444.8z M256,429.6
		c-0.8,0-1.6,0-2.4-0.8c-3.2-2.4-5.6-4.8-8.8-8c-0.8-0.8-1.6-1.6-3.2-3.2c-1.6-1.6-1.6-4,0-5.6s4-1.6,5.6,0c0.8,0.8,1.6,1.6,2.4,2.4
		c2.4,2.4,5.6,4.8,8,7.2c1.6,1.6,1.6,4,0.8,5.6C258.4,428.8,257.6,429.6,256,429.6z M411.2,428c-0.8,0-2.4-0.8-3.2-1.6
		c-1.6-1.6-0.8-4,0.8-5.6c2.4-1.6,4.8-4,7.2-6.4c1.6-1.6,2.4-2.4,4-4s4-1.6,5.6,0s1.6,4,0,5.6s-2.4,3.2-4,4
		c-2.4,2.4-4.8,4.8-7.2,6.4C412.8,428,412,428,411.2,428z M235.2,407.2c-0.8,0-2.4-0.8-3.2-1.6c-3.2-4-5.6-8.8-8.8-13.6
		c-0.8-1.6,0-4,1.6-4.8s4,0,4.8,1.6c2.4,4,4.8,8.8,8,12.8c1.6,1.6,0.8,4-0.8,5.6C236.8,407.2,236,407.2,235.2,407.2z M431.2,405.6
		c-0.8,0-1.6,0-2.4-0.8c-1.6-1.6-2.4-4-0.8-5.6c3.2-4,5.6-8,8-12.8c0.8-1.6,3.2-2.4,4.8-1.6c1.6,0.8,2.4,3.2,1.6,4.8
		c-2.4,4.8-4.8,8.8-8,13.6C433.6,405.6,432.8,405.6,431.2,405.6z M220.8,380.8c-1.6,0-3.2-0.8-3.2-2.4c-1.6-4.8-3.2-9.6-4.8-15.2
		c-0.8-2.4,0.8-4,2.4-4.8c2.4-0.8,4,0.8,4.8,2.4c0.8,4.8,2.4,9.6,4.8,14.4c0.8,1.6,0,4-2.4,4.8C221.6,380,221.6,380.8,220.8,380.8z
		 M445.6,379.2c-0.8,0-0.8,0-1.6,0c-1.6-0.8-3.2-3.2-2.4-4.8c1.6-4.8,3.2-9.6,4-14.4c0.8-2.4,2.4-3.2,4.8-3.2
		c2.4,0.8,3.2,2.4,3.2,4.8c-0.8,4.8-2.4,10.4-4.8,15.2C448.8,377.6,447.2,379.2,445.6,379.2z M213.6,351.2c-1.6,0-4-1.6-4-3.2
		c-0.8-4.8-1.6-9.6-1.6-14.4v-0.8c0-2.4,2.4-4,4-4c2.4,0,4,1.6,4,4v0.8c0,4.8,0.8,8.8,0.8,13.6C217.6,348.8,216,350.4,213.6,351.2
		L213.6,351.2z M452.8,349.6C452.8,349.6,452,349.6,452.8,349.6c-2.4,0-4-2.4-4-4c0.8-4,0.8-8,0.8-12V332c0-2.4,1.6-3.2,4-3.2l0,0
		c2.4,0,4,0.8,4,3.2v2.4c0,4,0,8-0.8,12.8C456,348,454.4,349.6,452.8,349.6z M213.6,320.8L213.6,320.8c-2.4,0-4-2.4-4-4
		c0.8-4.8,1.6-10.4,3.2-15.2c0.8-2.4,2.4-3.2,4.8-2.4c2.4,0.8,3.2,2.4,2.4,4.8c-1.6,4.8-2.4,9.6-3.2,14.4
		C217.6,319.2,216,320.8,213.6,320.8z M452,318.4c-1.6,0-3.2-1.6-4-3.2c-0.8-4.8-1.6-9.6-3.2-14.4c-0.8-2.4,0.8-4,2.4-4.8
		s4,0.8,4.8,2.4c1.6,4.8,2.4,10.4,3.2,15.2C456,316.8,454.4,318.4,452,318.4L452,318.4z M221.6,291.2c-0.8,0-0.8,0-1.6,0
		c-1.6-0.8-3.2-3.2-2.4-4.8c1.6-4.8,4-9.6,7.2-14.4c0.8-1.6,3.2-2.4,4.8-1.6s2.4,3.2,1.6,4.8c-2.4,4-4.8,8.8-6.4,13.6
		C224.8,290.4,223.2,291.2,221.6,291.2z M443.2,289.6c-1.6,0-3.2-0.8-3.2-2.4c-1.6-4.8-4-8.8-6.4-12.8c-0.8-1.6-0.8-4,1.6-5.6
		c1.6-0.8,4-0.8,5.6,1.6c2.4,4.8,4.8,9.6,7.2,14.4c0.8,1.6,0,4-2.4,4.8C444.8,289.6,444,289.6,443.2,289.6z M236.8,264.8
		c-0.8,0-1.6,0-2.4-0.8c-1.6-1.6-2.4-4-0.8-5.6c3.2-4,6.4-8,10.4-12c1.6-1.6,4-1.6,5.6,0s1.6,4,0,5.6c-3.2,3.2-6.4,7.2-9.6,11.2
		C239.2,264,237.6,264.8,236.8,264.8z M428,263.2c-0.8,0-2.4-0.8-3.2-1.6c-3.2-4-6.4-8-9.6-11.2c-1.6-1.6-1.6-3.2-0.8-4.8
		c-1.6,0.8-3.2,0.8-4.8,0c-4-3.2-7.2-6.4-12-8.8c-1.6-0.8-2.4-3.2-0.8-5.6c1.6-1.6,3.2-2.4,5.6-0.8c4,3.2,8.8,6.4,12.8,9.6
		c1.6,1.6,1.6,3.2,0.8,4.8c1.6-0.8,3.2-0.8,4.8,0.8c4,4,7.2,8,10.4,12c1.6,1.6,0.8,4-0.8,5.6C429.6,263.2,428.8,263.2,428,263.2z
		 M258.4,242.4c-0.8,0-2.4-0.8-3.2-1.6c-1.6-1.6-0.8-4,0.8-5.6c4-3.2,8.8-6.4,12.8-8.8c1.6-0.8,4-0.8,5.6,1.6c0.8,1.6,0.8,4-1.6,5.6
		c-4,2.4-8,5.6-12,8.8C260,242.4,259.2,242.4,258.4,242.4z M387.2,229.6c-0.8,0-0.8,0-1.6-0.8c-4-2.4-8.8-4-13.6-5.6
		c-1.6-0.8-3.2-3.2-2.4-4.8c0.8-1.6,3.2-3.2,4.8-2.4c4.8,1.6,9.6,4,14.4,6.4c1.6,0.8,2.4,3.2,1.6,4.8
		C390.4,228.8,388.8,229.6,387.2,229.6z M284,227.2c-1.6,0-3.2-0.8-3.2-2.4c-0.8-1.6,0-4,1.6-4.8c4.8-2.4,9.6-4,14.4-5.6
		c2.4-0.8,4,0.8,4.8,2.4c0.8,2.4-0.8,4-2.4,4.8c-4.8,1.6-9.6,3.2-13.6,4.8C284.8,227.2,284.8,227.2,284,227.2z M358.4,219.2h-0.8
		c-4.8-0.8-9.6-1.6-14.4-2.4c-2.4,0-4-2.4-3.2-4c0-2.4,2.4-4,4-3.2c5.6,0.8,10.4,1.6,15.2,2.4c2.4,0.8,3.2,2.4,3.2,4.8
		C362.4,218.4,360.8,219.2,358.4,219.2z M312.8,218.4c-1.6,0-3.2-1.6-4-3.2c0-2.4,0.8-4,3.2-4c4.8-0.8,10.4-1.6,16-1.6
		c2.4,0,4,1.6,4,4s-1.6,4-4,4C324,216.8,318.4,217.6,312.8,218.4C313.6,218.4,313.6,218.4,312.8,218.4z"/>
	<path style="fill:#C3D7DD;" d="M163.2,456h-0.8c-2.4,0-4-1.6-4-4s1.6-4,4-4h0.8c4.8,0,8.8,0.8,13.6,0c2.4,0,4,1.6,4,4s-1.6,4-3.2,4
		C172.8,456,168,456,163.2,456z M146.4,456L146.4,456c-5.6-0.8-11.2-1.6-16-3.2c-2.4-0.8-3.2-2.4-2.4-4.8s2.4-3.2,4.8-2.4
		c4.8,1.6,9.6,2.4,14.4,3.2c2.4,0,3.2,2.4,3.2,4C150.4,454.4,148.8,456,146.4,456z M192,453.6c-1.6,0-3.2-0.8-4-3.2
		c-0.8-2.4,0.8-4,2.4-4.8c4.8-0.8,9.6-2.4,14.4-4.8c1.6-0.8,4,0,4.8,2.4c0.8,1.6,0,4-2.4,4.8c-4.8,1.6-9.6,3.2-15.2,4.8
		C192.8,453.6,192.8,453.6,192,453.6z M117.6,448c-0.8,0-0.8,0-1.6,0c-4.8-1.6-9.6-4-14.4-7.2c-1.6-0.8-2.4-3.2-1.6-4.8
		c0.8-1.6,3.2-2.4,5.6-1.6c4,2.4,8.8,4.8,13.6,6.4c1.6,0.8,3.2,3.2,2.4,4.8C120,447.2,119.2,448,117.6,448z M220.8,442.4
		c-1.6,0-2.4-0.8-3.2-1.6c-0.8-1.6,0-4,1.6-4.8c4-2.4,8.8-4.8,12.8-8c1.6-1.6,4-0.8,5.6,0.8c1.6,1.6,0.8,4-0.8,5.6
		c-4,3.2-8.8,5.6-13.6,8C221.6,442.4,220.8,442.4,220.8,442.4z M91.2,432.8c-0.8,0-1.6,0-2.4-0.8c-4-3.2-8-6.4-12-10.4
		c-1.6-1.6-1.6-4,0-5.6s4-1.6,5.6,0c3.2,3.2,7.2,6.4,11.2,9.6c1.6,1.6,2.4,4,0.8,5.6C92.8,432,92,432.8,91.2,432.8z M245.6,424.8
		c-0.8,0-2.4-0.8-2.4-1.6c-1.6-1.6-1.6-4,0-5.6c0.8-0.8,1.6-1.6,2.4-2.4c2.4-2.4,4.8-5.6,7.2-8c1.6-1.6,4-1.6,5.6-0.8
		c1.6,1.6,1.6,4,0.8,5.6c-2.4,3.2-4.8,5.6-8,8.8c-0.8,0.8-1.6,1.6-3.2,3.2C247.2,424,246.4,424.8,245.6,424.8z M68.8,412
		c-0.8,0-2.4-0.8-3.2-1.6c-3.2-4-6.4-8.8-8.8-12.8c-0.8-2.4,0-4,1.6-5.6c1.6-0.8,4-0.8,5.6,1.6c2.4,4,5.6,8,8.8,12
		c1.6,1.6,0.8,4-0.8,5.6C70.4,411.2,69.6,412,68.8,412z M264.8,400.8c-0.8,0-1.6,0-2.4-0.8c-1.6-0.8-2.4-3.2-0.8-5.6
		c2.4-4,4.8-8.8,7.2-12.8c0.8-1.6,3.2-2.4,4.8-1.6c1.6,0.8,2.4,3.2,1.6,4.8c-2.4,4.8-4.8,9.6-7.2,13.6
		C267.2,400.8,265.6,400.8,264.8,400.8z M53.6,385.6c-1.6,0-3.2-0.8-3.2-2.4c-2.4-4.8-4-9.6-5.6-14.4c-0.8-2.4,0.8-4,2.4-4.8
		c2.4-0.8,4,0.8,4.8,2.4c1.6,4.8,3.2,9.6,4.8,13.6c0.8,1.6,0,4-1.6,4.8C54.4,385.6,53.6,385.6,53.6,385.6z M277.6,373.6h-0.8
		c-1.6-0.8-3.2-2.4-2.4-4.8c1.6-4.8,2.4-9.6,4-14.4c0-2.4,2.4-3.2,4.8-3.2s3.2,2.4,3.2,4.8c-0.8,4.8-2.4,10.4-4,15.2
		C280.8,372.8,279.2,373.6,277.6,373.6z M44.8,356.8c-1.6,0-3.2-1.6-4-3.2c-0.8-5.6-1.6-10.4-1.6-16c0-2.4,1.6-4,4-4s4,1.6,4,4
		c0,4.8,0.8,9.6,1.6,14.4C48.8,354.4,47.2,356,44.8,356.8L44.8,356.8z M283.2,343.2L283.2,343.2c-2.4,0-4-1.6-4-4s0-4,0-6.4
		s0-5.6,0-8s1.6-4,3.2-4s4,1.6,4,3.2c0,3.2,0,5.6,0,8.8c0,2.4,0,4.8,0,7.2C286.4,342.4,284.8,343.2,283.2,343.2z M43.2,326.4
		L43.2,326.4c-2.4,0-4-2.4-4-4c0.8-5.6,1.6-10.4,2.4-15.2c0.8-2.4,2.4-3.2,4.8-3.2c2.4,0.8,3.2,2.4,3.2,4.8
		c-0.8,4.8-1.6,9.6-2.4,14.4C47.2,324.8,45.6,326.4,43.2,326.4z M280.8,312.8c-1.6,0-3.2-1.6-4-3.2c-0.8-4.8-2.4-9.6-4-14.4
		c-0.8-1.6,0.8-4,2.4-4.8s4,0,4.8,2.4c1.6,4.8,3.2,10.4,4,15.2C284.8,310.4,284,312.8,280.8,312.8
		C281.6,312.8,280.8,312.8,280.8,312.8z M49.6,296c-0.8,0-0.8,0-1.6,0c-1.6-0.8-3.2-3.2-2.4-4.8c1.6-4.8,4-9.6,6.4-14.4
		c0.8-1.6,3.2-2.4,4.8-1.6c1.6,0.8,2.4,3.2,1.6,4.8c-2.4,4-4,8.8-5.6,13.6C52.8,295.2,51.2,296,49.6,296z M271.2,284
		c-1.6,0-2.4-0.8-3.2-2.4c-2.4-4.8-4.8-8.8-7.2-12.8c-0.8-1.6-0.8-4,0.8-5.6c1.6-0.8,4-0.8,5.6,0.8c3.2,4,5.6,8.8,8,13.6
		c0.8,1.6,0,4-1.6,4.8C272,284,272,284,271.2,284z M64,269.6c-0.8,0-1.6,0-2.4-0.8c-1.6-0.8-2.4-3.2-0.8-5.6c3.2-4,6.4-8.8,9.6-12.8
		c1.6-1.6,3.2-1.6,4.8-0.8c-0.8-1.6-0.8-3.2,0.8-4.8c4-4,8-7.2,12-10.4c1.6-1.6,4-0.8,5.6,0.8s0.8,4-0.8,5.6c-4,3.2-8,6.4-11.2,9.6
		c-1.6,1.6-3.2,1.6-4.8,0.8c0.8,1.6,0.8,3.2,0,4.8c-3.2,4-6.4,7.2-8.8,12C66.4,268.8,64.8,269.6,64,269.6z M254.4,259.2
		c-0.8,0-2.4-0.8-3.2-1.6c-1.6-2.4-4-4.8-6.4-7.2c-1.6-1.6-2.4-2.4-4-4s-1.6-4,0-5.6s4-1.6,5.6,0s3.2,2.4,4,4
		c2.4,2.4,4.8,4.8,6.4,7.2c1.6,1.6,0.8,4-0.8,5.6C256,258.4,255.2,259.2,254.4,259.2z M232,238.4c-0.8,0-1.6,0-2.4-0.8
		c-4-3.2-8-5.6-12.8-8c-1.6-0.8-2.4-3.2-1.6-4.8c0.8-1.6,3.2-2.4,4.8-1.6c4.8,2.4,8.8,4.8,13.6,8c1.6,1.6,2.4,3.2,0.8,5.6
		C234.4,237.6,233.6,238.4,232,238.4z M102.4,232.8c-1.6,0-2.4-0.8-3.2-1.6c-0.8-1.6-0.8-4,1.6-5.6c4.8-2.4,9.6-4.8,14.4-7.2
		c1.6-0.8,4,0,4.8,2.4c0.8,1.6,0,4-2.4,4.8c-4.8,1.6-8.8,4-12.8,6.4C103.2,232.8,102.4,232.8,102.4,232.8z M204.8,224
		c-0.8,0-0.8,0-1.6,0c-4.8-1.6-9.6-3.2-14.4-4c-2.4-0.8-3.2-2.4-3.2-4.8c0.8-2.4,2.4-3.2,4.8-3.2c4.8,0.8,10.4,2.4,15.2,4.8
		c1.6,0.8,3.2,3.2,2.4,4.8C208,223.2,206.4,224,204.8,224z M130.4,220.8c-1.6,0-3.2-0.8-4-2.4c-0.8-2.4,0.8-4,2.4-4.8
		c4.8-1.6,10.4-2.4,15.2-3.2c2.4,0,4,0.8,4,3.2s-0.8,4-3.2,4C140,218.4,135.2,219.2,130.4,220.8
		C131.2,220.8,130.4,220.8,130.4,220.8z M175.2,217.6L175.2,217.6c-4.8-0.8-8.8-0.8-12.8-0.8H160c-1.6,0-4-1.6-4-4s1.6-4,4-4h3.2
		c4,0,8.8,0,12.8,0.8c2.4,0,4,2.4,3.2,4C179.2,216,177.6,217.6,175.2,217.6z"/>
	<path style="fill:#C3D7DD;" d="M332.8,287.2H332c-2.4,0-4-1.6-4-4s1.6-4,4-4h0.8c4.8,0,8.8,0,13.6-0.8c2.4,0,4,1.6,4,3.2
		c0,2.4-1.6,4-3.2,4C342.4,286.4,337.6,287.2,332.8,287.2z M316.8,285.6C316.8,285.6,316,285.6,316.8,285.6
		c-5.6-0.8-11.2-1.6-16-3.2c-2.4-0.8-3.2-2.4-2.4-4.8c0.8-2.4,2.4-3.2,4.8-2.4c4.8,1.6,9.6,2.4,14.4,3.2c2.4,0,3.2,2.4,3.2,4
		C320,284.8,318.4,285.6,316.8,285.6z M362.4,283.2c-1.6,0-3.2-0.8-4-3.2c-0.8-2.4,0.8-4,2.4-4.8c4.8-0.8,9.6-2.4,14.4-4.8
		c1.6-0.8,4,0,4.8,2.4c0.8,1.6,0,4-2.4,4.8c-4.8,1.6-9.6,3.2-15.2,4.8C362.4,283.2,362.4,283.2,362.4,283.2z M287.2,278.4
		c-0.8,0-0.8,0-1.6,0c-4.8-1.6-9.6-4-14.4-7.2c-1.6-0.8-2.4-3.2-1.6-5.6c0.8-1.6,3.2-2.4,4.8-1.6c4,2.4,8.8,4.8,13.6,6.4
		c1.6,0.8,3.2,3.2,2.4,4.8C290.4,276.8,288.8,278.4,287.2,278.4z M390.4,272.8c-1.6,0-2.4-0.8-3.2-1.6c-0.8-1.6,0-4,1.6-4.8
		c4-2.4,8.8-4.8,12.8-8c1.6-1.6,4-0.8,5.6,0.8c1.6,1.6,0.8,4-0.8,5.6c-4,3.2-8.8,5.6-13.6,8C392,272,391.2,272.8,390.4,272.8z
		 M260.8,263.2c-0.8,0-1.6,0-2.4-0.8c-4-3.2-8-6.4-12-10.4c-1.6-1.6-1.6-4,0-5.6s4-1.6,5.6,0c3.2,3.2,7.2,6.4,11.2,9.6
		c1.6,1.6,2.4,4,0.8,5.6C263.2,262.4,261.6,263.2,260.8,263.2z M415.2,254.4c-0.8,0-2.4-0.8-2.4-1.6c-1.6-1.6-1.6-4,0-5.6
		c0.8-0.8,1.6-1.6,2.4-2.4c2.4-2.4,4.8-5.6,7.2-8c1.6-1.6,4-1.6,5.6-0.8c1.6,1.6,1.6,4,0.8,5.6c-2.4,3.2-4.8,5.6-8,8.8
		c-0.8,0.8-1.6,1.6-3.2,3.2C416.8,254.4,416,254.4,415.2,254.4z M239.2,241.6c-0.8,0-2.4-0.8-3.2-1.6c-3.2-4-6.4-8.8-8.8-12.8
		c-0.8-1.6-0.8-4,1.6-5.6c1.6-0.8,4-0.8,5.6,1.6c2.4,4,5.6,8,8.8,12c1.6,1.6,0.8,4-0.8,5.6C240.8,241.6,240,241.6,239.2,241.6z
		 M434.4,231.2c-0.8,0-1.6,0-2.4-0.8c-1.6-0.8-2.4-3.2-1.6-5.6c2.4-4,4.8-8.8,7.2-12.8c0.8-1.6,3.2-2.4,4.8-1.6
		c1.6,0.8,2.4,3.2,1.6,4.8c-2.4,4.8-4.8,9.6-7.2,13.6C436.8,230.4,436,231.2,434.4,231.2z M223.2,216c-1.6,0-3.2-0.8-3.2-2.4
		c-2.4-4.8-4-9.6-5.6-14.4c-0.8-2.4,0.8-4,2.4-4.8c2.4-0.8,4,0.8,4.8,2.4c1.6,4.8,3.2,9.6,4.8,13.6c0.8,1.6,0,4-1.6,4.8
		C224,216,224,216,223.2,216z M447.2,203.2h-0.8c-2.4-0.8-3.2-2.4-2.4-4.8c1.6-4.8,2.4-9.6,4-14.4c0-2.4,2.4-3.2,4.8-3.2
		s3.2,2.4,3.2,4.8c-0.8,4.8-2.4,10.4-4,15.2C450.4,202.4,448.8,203.2,447.2,203.2z M214.4,186.4c-1.6,0-3.2-1.6-4-3.2
		c-0.8-4.8-1.6-12-1.6-17.6c0-2.4,1.6-5.6,4-5.6l0,0c2.4,0,4,3.2,4,5.6c0,4.8,0.8,10.4,1.6,16C218.4,183.2,216.8,185.6,214.4,186.4
		C215.2,186.4,214.4,186.4,214.4,186.4z M452.8,176L452.8,176c-2.4,0-4-3.2-4-5.6c0-2.4,0-4.8,0-7.2s0-5.6,0-8.8c0-2.4,1.6-4,3.2-4
		s4,1.6,4,3.2c0,3.2,0,5.6,0,8.8c0,2.4,0,5.6,0,8C456.8,173.6,455.2,176,452.8,176z M213.6,156C212.8,156,212.8,156,213.6,156
		c-2.4,0-4-2.4-4-4c0.8-5.6,1.6-10.4,2.4-15.2c0.8-2.4,2.4-3.2,4.8-3.2c2.4,0.8,3.2,2.4,3.2,4.8c-0.8,4.8-1.6,9.6-2.4,14.4
		C216.8,154.4,215.2,156,213.6,156z M451.2,143.2c-1.6,0-3.2-1.6-4-3.2c-0.8-4.8-2.4-9.6-4-14.4c-0.8-1.6,0-4,2.4-4.8s4,0,4.8,2.4
		c1.6,4.8,3.2,10.4,4,15.2C455.2,140.8,453.6,142.4,451.2,143.2L451.2,143.2z M220,126.4c-0.8,0-0.8,0-1.6,0
		c-1.6-0.8-3.2-3.2-2.4-4.8c1.6-4.8,4-9.6,6.4-14.4c0.8-1.6,3.2-2.4,4.8-1.6s2.4,3.2,1.6,4.8c-2.4,4-4,8.8-5.6,13.6
		C222.4,125.6,221.6,126.4,220,126.4z M440.8,114.4c-1.6,0-2.4-0.8-3.2-2.4c-2.4-4.8-4.8-8.8-7.2-12.8c-0.8-1.6-0.8-4,0.8-5.6
		c1.6-0.8,4-0.8,5.6,0.8c3.2,4,5.6,8.8,8,13.6c0.8,1.6,0,4-1.6,4.8C442.4,114.4,441.6,114.4,440.8,114.4z M233.6,99.2
		c-0.8,0-1.6,0-2.4-0.8c-1.6-0.8-2.4-3.2-0.8-5.6c3.2-4,6.4-8.8,9.6-12.8c1.6-1.6,3.2-1.6,4.8-0.8c-0.8-1.6-0.8-3.2,0.8-4.8
		c4-4,8-7.2,12-10.4c0.8,0,3.2,0,4.8,1.6s0.8,4-0.8,5.6c-4,3.2-8,6.4-11.2,9.6c-1.6,1.6-3.2,1.6-4.8,0.8c0.8,1.6,0.8,3.2,0,4.8
		c-3.2,4-6.4,7.2-8.8,12C236,98.4,234.4,99.2,233.6,99.2z M424.8,88.8c-0.8,0-2.4-0.8-3.2-1.6c-2.4-2.4-4-4.8-6.4-7.2
		c-1.6-1.6-2.4-2.4-4-4s-1.6-4,0-5.6s4-1.6,5.6,0s3.2,2.4,4,4c2.4,2.4,4.8,4.8,6.4,7.2c1.6,1.6,0.8,4-0.8,5.6
		C426.4,88.8,425.6,88.8,424.8,88.8z M401.6,68c-0.8,0-1.6,0-2.4-0.8c-4-3.2-8-5.6-12.8-8c-1.6-0.8-2.4-3.2-1.6-4.8s3.2-2.4,4.8-1.6
		c4.8,2.4,8.8,4.8,13.6,8c1.6,1.6,2.4,4,0.8,5.6C404,68,403.2,68,401.6,68z M272,63.2c-1.6,0-2.4-0.8-3.2-1.6
		c-0.8-1.6-0.8-4,1.6-5.6c4.8-2.4,9.6-4.8,14.4-7.2c1.6-0.8,4,0,4.8,2.4c0.8,1.6,0,4-2.4,4.8c-4.8,1.6-8.8,4-12.8,6.4
		C273.6,63.2,272.8,63.2,272,63.2z M375.2,54.4c-0.8,0-0.8,0-1.6,0c-4.8-1.6-9.6-3.2-14.4-4c-2.4-0.8-3.2-2.4-3.2-4.8
		c0.8-2.4,2.4-3.2,4.8-3.2c4.8,0.8,10.4,2.4,15.2,4.8c1.6,0.8,3.2,3.2,2.4,4.8C378.4,53.6,376.8,54.4,375.2,54.4z M300,51.2
		c-1.6,0-3.2-0.8-4-2.4c-0.8-2.4,0.8-4,2.4-4.8c4.8-1.6,10.4-2.4,15.2-3.2c2.4,0,4,0.8,4,3.2s-0.8,4-3.2,4
		C309.6,48.8,304.8,49.6,300,51.2C300.8,51.2,300.8,51.2,300,51.2z M345.6,47.2C345.6,47.2,344.8,47.2,345.6,47.2
		c-4.8-0.8-8.8-0.8-12.8-0.8h-2.4c-2.4,0-4-1.6-4-4s1.6-4,4-4h3.2c4,0,8.8,0,12.8,0.8c2.4,0,4,2.4,3.2,4
		C348.8,45.6,347.2,47.2,345.6,47.2z"/>
</g>
<g>
	<path style="fill:#50CE06;" d="M248,256c-70.4,0-128-57.6-128-128S177.6,0,248,0s128,57.6,128,128S318.4,256,248,256z M248,15.2
		c-62.4,0-112.8,50.4-112.8,112.8S185.6,240.8,248,240.8S360.8,190.4,360.8,128S310.4,15.2,248,15.2z"/>
	<path style="fill:#50CE06;" d="M248,496c-70.4,0-128-57.6-128-128s57.6-128,128-128s128,57.6,128,128S318.4,496,248,496z
		 M248,255.2c-62.4,0-112.8,50.4-112.8,112.8S185.6,480.8,248,480.8S360.8,430.4,360.8,368S310.4,255.2,248,255.2z"/>
	<path style="fill:#50CE06;" d="M128,376L128,376C57.6,376,0,318.4,0,248s57.6-128,128-128s128,57.6,128,128S198.4,376,128,376z
		 M128,135.2c-62.4,0-112.8,50.4-112.8,112.8S65.6,360.8,128,360.8S240.8,310.4,240.8,248S189.6,135.2,128,135.2z"/>
	<path style="fill:#50CE06;" d="M368,376L368,376c-70.4,0-128-57.6-128-128s57.6-128,128-128s128,57.6,128,128S438.4,376,368,376z
		 M368,135.2c-62.4,0-112.8,50.4-112.8,112.8S305.6,360.8,368,360.8S480.8,310.4,480.8,248S430.4,135.2,368,135.2z"/>
</g>
<g>
</g>
<g>
</g>
<g>
</g>
<g>
</g>
<g>
</g>
<g>
</g>
<g>
</g>
<g>
</g>
<g>
</g>
<g>
</g>
<g>
</g>
<g>
</g>
<g>
</g>
<g>
</g>
<g>
</g>
</svg>
